<svg width="38" height="39" viewBox="0 0 38 39" fill="none" xmlns="http://www.w3.org/2000/svg">
<path d="M25.15 24.17C26.59 24.17 27.96 24.17 29.32 24.17C29.81 24.17 29.94 24 30.03 23.57C30.33 21.94 30.67 20.31 31.03 18.69C31.03 18.52 31.08 18.36 31.11 18.13H25.14C25.0586 16.8695 25.1291 15.6037 25.35 14.36C25.5314 13.7379 25.9174 13.1952 26.4454 12.8195C26.9735 12.4439 27.6128 12.2573 28.26 12.29C29.07 12.29 29.88 12.29 30.7 12.29C31.01 12.29 31.12 12.19 31.12 11.87C31.12 10.14 31.12 8.40001 31.12 6.66001C31.12 6.34001 31 6.25001 30.69 6.25001H26.46C24.9163 6.17558 23.3944 6.63795 22.1529 7.55855C20.9115 8.47915 20.0271 9.80118 19.65 11.3C19.374 12.3705 19.2065 13.466 19.15 14.57C19.06 15.57 19.15 16.57 19.15 17.57C19.15 17.72 19.15 17.87 19.15 18.07H14.43C14.43 18.25 14.43 18.38 14.43 18.52C14.43 20.23 14.43 21.94 14.43 23.65C14.43 24.04 14.57 24.12 14.92 24.11C16.19 24.11 17.46 24.11 18.73 24.11C19.06 24.11 19.16 24.21 19.16 24.54C19.16 28.8933 19.16 33.2267 19.16 37.54C19.16 37.91 19.03 37.99 18.69 37.99C16.04 37.99 13.39 37.99 10.74 37.99C8.60841 37.978 6.52785 37.3367 4.75945 36.1465C2.99105 34.9563 1.61361 33.2703 0.8 31.3C0.280095 30.0511 0.00837115 28.7128 0 27.36C0 22 0 16.56 0 11.17C0.033512 8.60196 0.979411 6.12956 2.66855 4.19492C4.3577 2.26029 6.67993 0.989575 9.22 0.610012C9.80988 0.530218 10.4048 0.493454 11 0.500012C16.17 0.500012 21.35 0.500012 26.51 0.500012C29.029 0.473599 31.4797 1.3181 33.4477 2.89066C35.4157 4.46322 36.78 6.66729 37.31 9.13001C37.4537 9.74378 37.5374 10.3701 37.56 11C37.56 16.48 37.56 22 37.56 27.44C37.5164 29.8572 36.6675 32.1908 35.1478 34.071C33.628 35.9512 31.5243 37.2705 29.17 37.82C27.9373 38.0494 26.6828 38.1399 25.43 38.09C25.17 38.09 25.13 37.96 25.14 37.75V24.17H25.15Z" fill="#0394FD"/>
</svg>
