<svg xmlns="http://www.w3.org/2000/svg" viewBox="0 0 1125.97 891.4"><defs><style>.cls-1{fill:#1a1a1a;}.cls-2{fill:#191919;}.cls-3{fill:#171717;}.cls-4{fill:#181818;}.cls-5{fill:#1c1c1c;}.cls-6{fill:#1b1b1b;}.cls-7{fill:#1d1d1d;}</style></defs><g id="Capa_3" data-name="Capa 3"><polyline class="cls-1" points="1125.97 891.4 0 891.4 0 0 1125.97 0 1125.97 891.4"/><polyline class="cls-1" points="1125.97 0 1063.42 0 1063.42 59.42 1125.97 59.42 1125.97 0"/><polyline class="cls-2" points="1125.97 59.42 1063.42 59.42 1063.42 118.85 1125.97 118.85 1125.97 59.42"/><polyline class="cls-2" points="1125.97 118.85 1063.42 118.85 1063.42 178.28 1125.97 178.28 1125.97 118.85"/><polyline class="cls-1" points="1125.97 178.28 1063.42 178.28 1063.42 237.71 1125.97 237.71 1125.97 178.28"/><polyline class="cls-1" points="1125.97 237.71 1063.42 237.71 1063.42 297.13 1125.97 297.13 1125.97 237.71"/><polyline class="cls-2" points="1125.97 297.13 1063.42 297.13 1063.42 356.56 1125.97 356.56 1125.97 297.13"/><polyline class="cls-2" points="1125.97 356.56 1063.42 356.56 1063.42 415.98 1125.97 415.98 1125.97 356.56"/><polyline class="cls-3" points="1125.97 415.98 1063.42 415.98 1063.42 475.41 1125.97 475.41 1125.97 415.98"/><polyline class="cls-4" points="1125.97 475.41 1063.42 475.41 1063.42 534.84 1125.97 534.84 1125.97 475.41"/><polyline class="cls-3" points="1125.97 594.26 1063.42 594.26 1063.42 653.69 1125.97 653.69 1125.97 594.26"/><polyline class="cls-4" points="1125.97 653.69 1063.42 653.69 1063.42 713.12 1125.97 713.12 1125.97 653.69"/><polyline class="cls-4" points="1125.97 713.12 1063.42 713.12 1063.42 772.54 1125.97 772.54 1125.97 713.12"/><polyline class="cls-4" points="1125.97 772.54 1063.42 772.54 1063.42 831.97 1125.97 831.97 1125.97 772.54"/><polyline class="cls-4" points="1125.97 831.97 1063.42 831.97 1063.42 891.4 1125.97 891.4 1125.97 831.97"/><polyline class="cls-1" points="1063.42 0 1000.87 0 1000.87 59.42 1063.42 59.42 1063.42 0"/><polyline class="cls-2" points="1063.42 59.42 1063.42 59.42 1000.87 59.42 1000.87 118.85 1063.42 118.85 1063.42 59.42"/><polyline class="cls-1" points="1063.42 178.28 1063.42 178.28 1000.87 178.28 1000.87 237.71 1063.42 237.71 1063.42 178.28"/><polyline class="cls-1" points="1063.42 237.71 1063.42 237.71 1000.87 237.71 1000.87 297.13 1063.42 297.13 1063.42 237.71"/><polyline class="cls-3" points="1063.42 297.13 1063.42 297.13 1000.87 297.13 1000.87 356.56 1063.42 356.56 1063.42 297.13"/><polyline class="cls-3" points="1063.42 356.56 1063.42 356.56 1000.87 356.56 1000.87 415.98 1063.42 415.98 1063.42 356.56"/><polyline class="cls-3" points="1063.42 415.98 1063.42 415.98 1000.87 415.98 1000.87 475.41 1063.42 475.41 1063.42 415.98"/><polyline class="cls-4" points="1063.42 475.41 1063.42 475.41 1000.87 475.41 1000.87 534.84 1063.42 534.84 1063.42 475.41"/><polyline class="cls-3" points="1063.42 534.84 1063.42 534.84 1000.87 534.84 1000.87 594.26 1063.42 594.26 1063.42 534.84"/><polyline class="cls-3" points="1063.42 594.26 1063.42 594.26 1000.87 594.26 1000.87 653.69 1063.42 653.69 1063.42 594.26"/><polyline class="cls-1" points="1063.42 653.69 1063.42 653.69 1000.87 653.69 1000.87 713.12 1063.42 713.12 1063.42 653.69"/><polyline class="cls-5" points="1063.42 713.12 1063.42 713.12 1000.87 713.12 1000.87 772.54 1063.42 772.54 1063.42 713.12"/><polyline class="cls-4" points="1063.42 772.54 1063.42 772.54 1000.87 772.54 1000.87 831.97 1063.42 831.97 1063.42 772.54"/><polyline class="cls-4" points="1063.42 831.97 1063.42 831.97 1000.87 831.97 1000.87 891.4 1063.42 891.4 1063.42 831.97"/><polyline class="cls-3" points="1000.87 0 938.31 0 938.31 59.42 1000.87 59.42 1000.87 0"/><polyline class="cls-3" points="938.31 59.42 938.31 118.85 1000.87 118.85 1000.87 59.42 938.31 59.42"/><polyline class="cls-1" points="1000.87 118.85 1000.87 118.85 938.31 118.85 938.31 178.28 1000.87 178.28 1000.87 118.85"/><polyline class="cls-1" points="1000.87 178.28 1000.87 178.28 938.31 178.28 938.31 237.71 1000.87 237.71 1000.87 178.28"/><polyline class="cls-1" points="1000.87 237.71 1000.87 237.71 938.31 237.71 938.31 297.13 1000.87 297.13 1000.87 237.71"/><polyline class="cls-3" points="1000.87 297.13 1000.87 297.13 938.31 297.13 938.31 356.56 1000.87 356.56 1000.87 297.13"/><polyline class="cls-3" points="1000.87 356.56 1000.87 356.56 938.31 356.56 938.31 415.98 1000.87 415.98 1000.87 356.56"/><polyline class="cls-3" points="1000.87 415.98 1000.87 415.98 938.31 415.98 938.31 475.41 1000.87 475.41 1000.87 415.98"/><polyline class="cls-3" points="1000.87 475.41 1000.87 475.41 938.31 475.41 938.31 534.84 1000.87 534.84 1000.87 475.41"/><polyline class="cls-3" points="1000.87 534.84 1000.87 534.84 938.31 534.84 938.31 594.26 1000.87 594.26 1000.87 534.84"/><polyline class="cls-1" points="1000.87 594.26 1000.87 594.26 938.31 594.26 938.31 653.69 1000.87 653.69 1000.87 594.26"/><polyline class="cls-1" points="1000.87 653.69 1000.87 653.69 938.31 653.69 938.31 713.12 1000.87 713.12 1000.87 653.69"/><polyline class="cls-5" points="1000.87 713.12 1000.87 713.12 938.31 713.12 938.31 772.54 1000.87 772.54 1000.87 713.12"/><polyline class="cls-5" points="1000.87 772.54 1000.87 772.54 938.31 772.54 938.31 831.97 1000.87 831.97 1000.87 772.54"/><polyline class="cls-4" points="1000.87 831.97 1000.87 831.97 938.31 831.97 938.31 891.4 1000.87 891.4 1000.87 831.97"/><polyline class="cls-4" points="938.31 0 875.76 0 875.76 59.42 938.31 59.42 938.31 0"/><polyline class="cls-4" points="938.31 59.42 938.31 59.42 875.76 59.42 875.76 118.85 938.31 118.85 938.31 59.42"/><polyline class="cls-4" points="938.31 118.85 938.31 118.85 875.76 118.85 875.76 178.28 938.31 178.28 938.31 118.85"/><polyline class="cls-4" points="938.31 178.28 938.31 178.28 875.76 178.28 875.76 237.71 938.31 237.71 938.31 178.28"/><polyline class="cls-2" points="938.31 237.71 938.31 237.71 875.76 237.71 875.76 297.13 938.31 297.13 938.31 237.71"/><polyline class="cls-2" points="938.31 297.13 938.31 297.13 875.76 297.13 875.76 356.56 938.31 356.56 938.31 297.13"/><polyline class="cls-4" points="938.31 356.56 938.31 356.56 875.76 356.56 875.76 415.98 938.31 415.98 938.31 356.56"/><polyline class="cls-4" points="938.31 415.98 938.31 415.98 875.76 415.98 875.76 475.41 938.31 475.41 938.31 415.98"/><polyline class="cls-2" points="938.31 475.41 938.31 475.41 875.76 475.41 875.76 534.84 938.31 534.84 938.31 475.41"/><polyline class="cls-2" points="938.31 534.84 938.31 534.84 875.76 534.84 875.76 594.26 938.31 594.26 938.31 534.84"/><polyline class="cls-4" points="938.31 594.26 938.31 594.26 875.76 594.26 875.76 653.69 938.31 653.69 938.31 594.26"/><polyline class="cls-1" points="938.31 653.69 938.31 653.69 875.76 653.69 875.76 713.12 938.31 713.12 938.31 653.69"/><polyline class="cls-2" points="938.31 713.12 938.31 713.12 875.76 713.12 875.76 772.54 938.31 772.54 938.31 713.12"/><polyline class="cls-2" points="938.31 772.54 938.31 772.54 875.76 772.54 875.76 831.97 938.31 831.97 938.31 772.54"/><polyline class="cls-4" points="938.31 831.97 938.31 831.97 875.76 831.97 875.76 891.4 938.31 891.4 938.31 831.97"/><polyline class="cls-1" points="875.76 0 813.2 0 813.2 59.42 875.76 59.42 875.76 0"/><polyline class="cls-4" points="875.76 59.42 875.76 59.42 813.2 59.42 813.2 118.85 875.76 118.85 875.76 59.42"/><polyline class="cls-4" points="875.76 118.85 875.76 118.85 813.2 118.85 813.2 178.28 875.76 178.28 875.76 118.85"/><polyline class="cls-4" points="875.76 178.28 875.76 178.28 813.2 178.28 813.2 237.71 875.76 237.71 875.76 178.28"/><polyline class="cls-2" points="875.76 237.71 875.76 237.71 813.2 237.71 813.2 297.13 875.76 297.13 875.76 237.71"/><polyline class="cls-2" points="875.76 297.13 875.76 297.13 813.2 297.13 813.2 356.56 875.76 356.56 875.76 297.13"/><polyline class="cls-4" points="875.76 356.56 875.76 356.56 813.2 356.56 813.2 415.98 875.76 415.98 875.76 356.56"/><polyline class="cls-4" points="875.76 415.98 875.76 415.98 813.2 415.98 813.2 475.41 875.76 475.41 875.76 415.98"/><polyline class="cls-2" points="875.76 475.41 875.76 475.41 813.2 475.41 813.2 534.84 875.76 534.84 875.76 475.41"/><polyline class="cls-3" points="875.76 534.84 875.76 534.84 813.2 534.84 813.2 594.26 875.76 594.26 875.76 534.84"/><polyline class="cls-1" points="875.76 594.26 875.76 594.26 813.2 594.26 813.2 653.69 875.76 653.69 875.76 594.26"/><polyline class="cls-2" points="875.76 653.69 875.76 653.69 813.2 653.69 813.2 713.12 875.76 713.12 875.76 653.69"/><polyline class="cls-2" points="875.76 713.12 875.76 713.12 813.2 713.12 813.2 772.54 875.76 772.54 875.76 713.12"/><polyline class="cls-5" points="875.76 772.54 875.76 772.54 813.2 772.54 813.2 831.97 875.76 831.97 875.76 772.54"/><polyline class="cls-3" points="875.76 831.97 875.76 831.97 813.2 831.97 813.2 891.4 875.76 891.4 875.76 831.97"/><polyline class="cls-1" points="813.2 0 750.65 0 750.65 59.42 813.2 59.42 813.2 0"/><polyline class="cls-3" points="813.2 59.42 813.2 59.42 750.65 59.42 750.65 118.85 813.2 118.85 813.2 59.42"/><polyline class="cls-2" points="813.2 118.85 813.2 118.85 750.65 118.85 750.65 178.28 813.2 178.28 813.2 118.85"/><polyline class="cls-4" points="813.2 178.28 813.2 178.28 750.65 178.28 750.65 237.71 813.2 237.71 813.2 178.28"/><polyline class="cls-2" points="813.2 237.71 813.2 237.71 750.65 237.71 750.65 297.13 813.2 297.13 813.2 237.71"/><polyline class="cls-2" points="813.2 297.13 813.2 297.13 750.65 297.13 750.65 356.56 813.2 356.56 813.2 297.13"/><polyline class="cls-4" points="813.2 356.56 813.2 356.56 750.65 356.56 750.65 415.98 813.2 415.98 813.2 356.56"/><path class="cls-4" d="M813.2,416H750.65v59.43H813.2V416m0,0h0"/><polyline class="cls-3" points="813.2 475.41 750.65 475.41 750.65 534.84 813.2 534.84 813.2 475.41"/><polyline class="cls-3" points="813.2 534.84 813.2 534.84 750.65 534.84 750.65 594.26 813.2 594.26 813.2 534.84"/><polyline class="cls-1" points="813.2 594.26 813.2 594.26 750.65 594.26 750.65 653.69 813.2 653.69 813.2 594.26"/><polyline class="cls-2" points="813.2 653.69 813.2 653.69 750.65 653.69 750.65 713.12 813.2 713.12 813.2 653.69"/><polyline class="cls-3" points="813.2 713.12 813.2 713.12 750.65 713.12 750.65 772.54 813.2 772.54 813.2 713.12"/><polyline class="cls-2" points="813.2 772.54 813.2 772.54 750.65 772.54 750.65 831.97 813.2 831.97 813.2 772.54"/><polyline class="cls-3" points="813.2 831.97 813.2 831.97 750.65 831.97 750.65 891.4 813.2 891.4 813.2 831.97"/><polyline class="cls-2" points="750.65 0 688.09 0 688.09 59.42 750.65 59.42 750.65 0"/><polyline class="cls-3" points="750.65 59.42 750.65 59.42 688.09 59.42 688.09 118.85 750.65 118.85 750.65 59.42"/><polyline class="cls-2" points="750.65 118.85 750.65 118.85 688.09 118.85 688.09 178.28 750.65 178.28 750.65 118.85"/><polyline class="cls-4" points="750.65 178.28 750.65 178.28 688.09 178.28 688.09 237.71 750.65 237.71 750.65 178.28"/><polyline class="cls-4" points="750.65 237.71 750.65 237.71 688.09 237.71 688.09 297.13 750.65 297.13 750.65 237.71"/><polyline class="cls-2" points="750.65 297.13 750.65 297.13 688.09 297.13 688.09 356.56 750.65 356.56 750.65 297.13"/><polyline class="cls-4" points="750.65 356.56 750.65 356.56 688.09 356.56 688.09 415.98 750.65 415.98 750.65 356.56"/><polyline class="cls-2" points="750.65 415.98 750.65 415.98 688.09 415.98 688.09 475.41 750.65 475.41 750.65 415.98"/><polyline class="cls-3" points="750.65 475.41 750.65 475.41 688.09 475.41 688.09 534.84 750.65 534.84 750.65 475.41"/><polyline class="cls-4" points="750.65 534.84 750.65 534.84 688.09 534.84 688.09 594.26 750.65 594.26 750.65 534.84"/><polyline class="cls-5" points="750.65 594.26 750.65 594.26 688.09 594.26 688.09 653.69 750.65 653.69 750.65 594.26"/><polyline class="cls-3" points="750.65 653.69 750.65 653.69 688.09 653.69 688.09 713.12 750.65 713.12 750.65 653.69"/><polyline class="cls-4" points="750.65 713.12 750.65 713.12 688.09 713.12 688.09 772.54 750.65 772.54 750.65 713.12"/><polyline class="cls-3" points="750.65 772.54 750.65 772.54 688.09 772.54 688.09 831.97 750.65 831.97 750.65 772.54"/><polyline class="cls-2" points="750.65 831.97 750.65 831.97 688.09 831.97 688.09 891.4 750.65 891.4 750.65 831.97"/><polyline class="cls-5" points="688.09 0 625.54 0 625.54 59.42 688.09 59.42 688.09 0"/><polyline class="cls-5" points="688.09 59.42 688.09 59.42 625.54 59.42 625.54 118.85 688.09 118.85 688.09 59.42"/><polyline class="cls-4" points="688.09 118.85 688.09 118.85 625.54 118.85 625.54 178.28 688.09 178.28 688.09 118.85"/><polyline class="cls-4" points="688.09 178.28 688.09 178.28 625.54 178.28 625.54 237.71 688.09 237.71 688.09 178.28"/><polyline class="cls-4" points="688.09 237.71 688.09 237.71 625.54 237.71 625.54 297.13 688.09 297.13 688.09 237.71"/><polyline class="cls-4" points="688.09 297.13 688.09 297.13 625.54 297.13 625.54 356.56 688.09 356.56 688.09 297.13"/><polyline class="cls-4" points="688.09 356.56 688.09 356.56 625.54 356.56 625.54 415.98 688.09 415.98 688.09 356.56"/><polyline class="cls-2" points="688.09 415.98 688.09 415.98 625.54 415.98 625.54 475.41 688.09 475.41 688.09 415.98"/><polyline class="cls-1" points="688.09 475.41 688.09 475.41 625.54 475.41 625.54 534.84 688.09 534.84 688.09 475.41"/><polyline class="cls-2" points="688.09 534.84 688.09 534.84 625.54 534.84 625.54 594.26 688.09 594.26 688.09 534.84"/><path class="cls-1" d="M688.09,594.26H625.54v59.43h62.55V594.26m0,0h0"/><polyline class="cls-1" points="688.09 653.69 625.54 653.69 625.54 713.12 688.09 713.12 688.09 653.69"/><polyline class="cls-2" points="688.09 713.12 688.09 713.12 625.54 713.12 625.54 772.54 688.09 772.54 688.09 713.12"/><polyline class="cls-3" points="688.09 772.54 688.09 772.54 625.54 772.54 625.54 831.97 688.09 831.97 688.09 772.54"/><polyline class="cls-2" points="688.09 831.97 688.09 831.97 625.54 831.97 625.54 891.4 688.09 891.4 688.09 831.97"/><polyline class="cls-3" points="625.54 0 562.99 0 562.99 59.42 625.54 59.42 625.54 0"/><polyline class="cls-2" points="625.54 59.42 625.54 59.42 562.99 59.42 562.99 118.85 625.54 118.85 625.54 59.42"/><polyline class="cls-3" points="625.54 118.85 625.54 118.85 562.99 118.85 562.99 178.28 625.54 178.28 625.54 118.85"/><polyline class="cls-3" points="625.54 178.28 625.54 178.28 562.99 178.28 562.99 237.71 625.54 237.71 625.54 178.28"/><polyline class="cls-2" points="625.54 237.71 625.54 237.71 562.99 237.71 562.99 297.13 625.54 297.13 625.54 237.71"/><polyline class="cls-4" points="625.54 297.13 625.54 297.13 562.99 297.13 562.99 356.56 625.54 356.56 625.54 297.13"/><polyline class="cls-3" points="625.54 356.56 625.54 356.56 562.99 356.56 562.99 415.98 625.54 415.98 625.54 356.56"/><polyline class="cls-1" points="625.54 415.98 625.54 415.98 562.99 415.98 562.99 475.41 625.54 475.41 625.54 415.98"/><polyline class="cls-2" points="625.54 475.41 625.54 475.41 562.99 475.41 562.99 534.84 625.54 534.84 625.54 475.41"/><polyline class="cls-1" points="625.54 534.84 625.54 534.84 562.99 534.84 562.99 594.26 625.54 594.26 625.54 534.84"/><polyline class="cls-1" points="625.54 594.26 625.54 594.26 562.99 594.26 562.99 653.69 625.54 653.69 625.54 594.26"/><polyline class="cls-2" points="625.54 653.69 625.54 653.69 562.99 653.69 562.99 713.12 625.54 713.12 625.54 653.69"/><polyline class="cls-1" points="625.54 713.12 625.54 713.12 562.99 713.12 562.99 772.54 625.54 772.54 625.54 713.12"/><polyline class="cls-2" points="625.54 772.54 625.54 772.54 562.99 772.54 562.99 831.97 625.54 831.97 625.54 772.54"/><polyline class="cls-2" points="625.54 831.97 625.54 831.97 562.99 831.97 562.99 891.4 625.54 891.4 625.54 831.97"/><polyline class="cls-3" points="562.99 0 500.43 0 500.43 59.42 562.99 59.42 562.99 0"/><polyline class="cls-2" points="562.99 59.42 562.99 59.42 500.43 59.42 500.43 118.85 562.99 118.85 562.99 59.42"/><polyline class="cls-2" points="562.99 118.85 562.99 118.85 500.43 118.85 500.43 178.28 562.99 178.28 562.99 118.85"/><polyline class="cls-3" points="562.99 178.28 562.99 178.28 500.43 178.28 500.43 237.71 562.99 237.71 562.99 178.28"/><polyline class="cls-4" points="562.99 237.71 562.99 237.71 500.43 237.71 500.43 297.13 562.99 297.13 562.99 237.71"/><polyline class="cls-4" points="562.99 297.13 562.99 297.13 500.43 297.13 500.43 356.56 562.99 356.56 562.99 297.13"/><polyline class="cls-4" points="562.99 356.56 562.99 356.56 500.43 356.56 500.43 415.98 562.99 415.98 562.99 356.56"/><polyline class="cls-6" points="562.99 415.98 562.99 415.98 500.43 415.98 500.43 475.41 562.99 475.41 562.99 415.98"/><polyline class="cls-1" points="562.99 475.41 562.99 475.41 500.43 475.41 500.43 534.84 562.99 534.84 562.99 475.41"/><polyline class="cls-2" points="562.99 534.84 562.99 534.84 500.43 534.84 500.43 594.26 562.99 594.26 562.99 534.84"/><polyline class="cls-2" points="562.99 594.26 562.99 594.26 500.43 594.26 500.43 653.69 562.99 653.69 562.99 594.26"/><polyline class="cls-1" points="562.99 653.69 562.99 653.69 500.43 653.69 500.43 713.12 562.99 713.12 562.99 653.69"/><polyline class="cls-3" points="562.99 713.12 562.99 713.12 500.43 713.12 500.43 772.54 562.99 772.54 562.99 713.12"/><polyline class="cls-1" points="562.99 772.54 562.99 772.54 500.43 772.54 500.43 831.97 562.99 831.97 562.99 772.54"/><polyline class="cls-1" points="562.99 831.97 562.99 831.97 500.43 831.97 500.43 891.4 562.99 891.4 562.99 831.97"/><polyline class="cls-3" points="500.43 0 437.88 0 437.88 59.42 500.43 59.42 500.43 0"/><polyline class="cls-3" points="500.43 59.42 500.43 59.42 437.88 59.42 437.88 118.85 500.43 118.85 500.43 59.42"/><polyline class="cls-3" points="500.43 118.85 500.43 118.85 437.88 118.85 437.88 178.28 500.43 178.28 500.43 118.85"/><polyline class="cls-4" points="500.43 178.28 500.43 178.28 437.88 178.28 437.88 237.71 500.43 237.71 500.43 178.28"/><polyline class="cls-4" points="500.43 237.71 500.43 237.71 437.88 237.71 437.88 297.13 500.43 297.13 500.43 237.71"/><polyline class="cls-2" points="500.43 297.13 500.43 297.13 437.88 297.13 437.88 356.56 500.43 356.56 500.43 297.13"/><polyline class="cls-1" points="500.43 356.56 500.43 356.56 437.88 356.56 437.88 415.98 500.43 415.98 500.43 356.56"/><polyline class="cls-2" points="500.43 415.98 500.43 415.98 437.88 415.98 437.88 475.41 500.43 475.41 500.43 415.98"/><polyline class="cls-4" points="500.43 475.41 500.43 475.41 437.88 475.41 437.88 534.84 500.43 534.84 500.43 475.41"/><polyline class="cls-2" points="500.43 534.84 500.43 534.84 437.88 534.84 437.88 594.26 500.43 594.26 500.43 534.84"/><polyline class="cls-2" points="500.43 594.26 500.43 594.26 437.88 594.26 437.88 653.69 500.43 653.69 500.43 594.26"/><polyline class="cls-4" points="500.43 653.69 500.43 653.69 437.88 653.69 437.88 713.12 500.43 713.12 500.43 653.69"/><polyline class="cls-2" points="500.43 713.12 500.43 713.12 437.88 713.12 437.88 772.54 500.43 772.54 500.43 713.12"/><polyline class="cls-7" points="500.43 772.54 500.43 772.54 437.88 772.54 437.88 831.97 500.43 831.97 500.43 772.54"/><polyline class="cls-2" points="437.88 831.97 437.88 891.4 500.43 891.4 500.43 831.97 437.88 831.97"/><polyline class="cls-3" points="437.88 0 375.32 0 375.32 59.42 437.88 59.42 437.88 0"/><polyline class="cls-3" points="437.88 59.42 437.88 59.42 375.32 59.42 375.32 118.85 437.88 118.85 437.88 59.42"/><polyline class="cls-2" points="437.88 118.85 437.88 118.85 375.32 118.85 375.32 178.28 437.88 178.28 437.88 118.85"/><path class="cls-4" d="M437.88,178.28H375.33v59.43h62.55V178.28m0,0h0"/><polyline class="cls-4" points="375.32 237.71 375.32 297.13 437.88 297.13 437.88 237.71 375.32 237.71"/><polyline class="cls-2" points="437.88 297.13 437.88 297.13 375.32 297.13 375.32 356.56 437.88 356.56 437.88 297.13"/><polyline class="cls-5" points="437.88 356.56 437.88 356.56 375.32 356.56 375.32 415.98 437.88 415.98 437.88 356.56"/><polyline class="cls-2" points="437.88 415.98 437.88 415.98 375.32 415.98 375.32 475.41 437.88 475.41 437.88 415.98"/><polyline class="cls-4" points="437.88 475.41 437.88 475.41 375.32 475.41 375.32 534.84 437.88 534.84 437.88 475.41"/><polyline class="cls-4" points="437.88 534.84 437.88 534.84 375.32 534.84 375.32 594.26 437.88 594.26 437.88 534.84"/><polyline class="cls-2" points="437.88 594.26 437.88 594.26 375.32 594.26 375.32 653.69 437.88 653.69 437.88 594.26"/><polyline class="cls-4" points="437.88 653.69 437.88 653.69 375.32 653.69 375.32 713.12 437.88 713.12 437.88 653.69"/><polyline class="cls-2" points="437.88 713.12 437.88 713.12 375.32 713.12 375.32 772.54 437.88 772.54 437.88 713.12"/><polyline class="cls-2" points="437.88 772.54 437.88 772.54 375.32 772.54 375.32 831.97 437.88 831.97 437.88 772.54"/><polyline class="cls-2" points="437.88 831.97 437.88 831.97 375.32 831.97 375.32 891.4 437.88 891.4 437.88 831.97"/><polyline class="cls-2" points="375.32 0 312.77 0 312.77 59.42 375.32 59.42 375.32 0"/><polyline class="cls-2" points="375.32 59.42 375.32 59.42 312.77 59.42 312.77 118.85 375.32 118.85 375.32 59.42"/><polyline class="cls-2" points="375.32 118.85 375.32 118.85 312.77 118.85 312.77 178.28 375.32 178.28 375.32 118.85"/><polyline class="cls-2" points="375.32 178.28 375.32 178.28 312.77 178.28 312.77 237.71 375.32 237.71 375.32 178.28"/><polyline class="cls-2" points="375.32 237.71 375.32 237.71 312.77 237.71 312.77 297.13 375.32 297.13 375.32 237.71"/><polyline class="cls-2" points="375.32 297.13 375.32 297.13 312.77 297.13 312.77 356.56 375.32 356.56 375.32 297.13"/><polyline class="cls-3" points="375.32 356.56 375.32 356.56 312.77 356.56 312.77 415.98 375.32 415.98 375.32 356.56"/><polyline class="cls-2" points="375.32 415.98 375.32 415.98 312.77 415.98 312.77 475.41 375.32 475.41 375.32 415.98"/><polyline class="cls-1" points="375.32 475.41 375.32 475.41 312.77 475.41 312.77 534.84 375.32 534.84 375.32 475.41"/><polyline class="cls-2" points="375.32 534.84 375.32 534.84 312.77 534.84 312.77 594.26 375.32 594.26 375.32 534.84"/><polyline class="cls-4" points="375.32 594.26 375.32 594.26 312.77 594.26 312.77 653.69 375.32 653.69 375.32 594.26"/><polyline class="cls-2" points="312.77 653.69 312.77 713.12 375.32 713.12 375.32 653.69 312.77 653.69"/><polyline class="cls-2" points="375.32 713.12 375.32 713.12 312.77 713.12 312.77 772.54 375.32 772.54 375.32 713.12"/><polyline class="cls-2" points="375.32 772.54 375.32 772.54 312.77 772.54 312.77 831.97 375.32 831.97 375.32 772.54"/><polyline class="cls-4" points="375.32 831.97 375.32 831.97 312.77 831.97 312.77 891.4 375.32 891.4 375.32 831.97"/><polyline class="cls-4" points="312.77 0 250.21 0 250.21 59.42 312.77 59.42 312.77 0"/><path class="cls-2" d="M312.77,59.42H250.21v59.43h62.56V59.42m0,0h0"/><polyline class="cls-2" points="312.77 118.85 250.21 118.85 250.21 178.28 312.77 178.28 312.77 118.85"/><polyline class="cls-2" points="312.77 178.28 312.77 178.28 250.21 178.28 250.21 237.71 312.77 237.71 312.77 178.28"/><polyline class="cls-3" points="312.77 237.71 312.77 237.71 250.21 237.71 250.21 297.13 312.77 297.13 312.77 237.71"/><polyline class="cls-3" points="312.77 297.13 312.77 297.13 250.21 297.13 250.21 356.56 312.77 356.56 312.77 297.13"/><polyline class="cls-2" points="312.77 356.56 312.77 356.56 250.21 356.56 250.21 415.98 312.77 415.98 312.77 356.56"/><polyline class="cls-2" points="312.77 415.98 312.77 415.98 250.21 415.98 250.21 475.41 312.77 475.41 312.77 415.98"/><polyline class="cls-2" points="312.77 475.41 312.77 475.41 250.21 475.41 250.21 534.84 312.77 534.84 312.77 475.41"/><polyline class="cls-2" points="312.77 534.84 312.77 534.84 250.21 534.84 250.21 594.26 312.77 594.26 312.77 534.84"/><polyline class="cls-1" points="312.77 594.26 312.77 594.26 250.21 594.26 250.21 653.69 312.77 653.69 312.77 594.26"/><polyline class="cls-5" points="312.77 653.69 312.77 653.69 250.21 653.69 250.21 713.12 312.77 713.12 312.77 653.69"/><polyline class="cls-2" points="312.77 713.12 312.77 713.12 250.21 713.12 250.21 772.54 312.77 772.54 312.77 713.12"/><polyline class="cls-3" points="312.77 772.54 312.77 772.54 250.21 772.54 250.21 831.97 312.77 831.97 312.77 772.54"/><polyline class="cls-2" points="312.77 831.97 312.77 831.97 250.21 831.97 250.21 891.4 312.77 891.4 312.77 831.97"/><polyline class="cls-3" points="250.21 0 187.66 0 187.66 59.42 250.21 59.42 250.21 0"/><polyline class="cls-5" points="250.21 59.42 250.21 59.42 187.66 59.42 187.66 118.85 250.21 118.85 250.21 59.42"/><polyline class="cls-3" points="250.21 118.85 250.21 118.85 187.66 118.85 187.66 178.28 250.21 178.28 250.21 118.85"/><polyline class="cls-3" points="250.21 178.28 250.21 178.28 187.66 178.28 187.66 237.71 250.21 237.71 250.21 178.28"/><polyline class="cls-4" points="250.21 237.71 250.21 237.71 187.66 237.71 187.66 297.13 250.21 297.13 250.21 237.71"/><polyline class="cls-3" points="250.21 297.13 250.21 297.13 187.66 297.13 187.66 356.56 250.21 356.56 250.21 297.13"/><polyline class="cls-3" points="250.21 356.56 250.21 356.56 187.66 356.56 187.66 415.98 250.21 415.98 250.21 356.56"/><polyline class="cls-2" points="250.21 415.98 250.21 415.98 187.66 415.98 187.66 475.41 250.21 475.41 250.21 415.98"/><polyline class="cls-4" points="250.21 475.41 250.21 475.41 187.66 475.41 187.66 534.84 250.21 534.84 250.21 475.41"/><polyline class="cls-3" points="250.21 534.84 250.21 534.84 187.66 534.84 187.66 594.26 250.21 594.26 250.21 534.84"/><polyline class="cls-3" points="250.21 594.26 250.21 594.26 187.66 594.26 187.66 653.69 250.21 653.69 250.21 594.26"/><polyline class="cls-2" points="250.21 653.69 250.21 653.69 187.66 653.69 187.66 713.12 250.21 713.12 250.21 653.69"/><polyline class="cls-4" points="250.21 713.12 250.21 713.12 187.66 713.12 187.66 772.54 250.21 772.54 250.21 713.12"/><path class="cls-5" d="M250.21,772.55H187.66V832h62.55V772.55m0,0h0"/><polyline class="cls-2" points="250.21 831.97 187.66 831.97 187.66 891.4 250.21 891.4 250.21 831.97"/><polyline class="cls-1" points="187.66 0 125.11 0 125.11 59.42 187.66 59.42 187.66 0"/><polyline class="cls-2" points="187.66 59.42 187.66 59.42 125.11 59.42 125.11 118.85 187.66 118.85 187.66 59.42"/><polyline class="cls-2" points="187.66 118.85 187.66 118.85 125.11 118.85 125.11 178.28 187.66 178.28 187.66 118.85"/><polyline class="cls-4" points="187.66 178.28 187.66 178.28 125.11 178.28 125.11 237.71 187.66 237.71 187.66 178.28"/><polyline class="cls-4" points="187.66 237.71 187.66 237.71 125.11 237.71 125.11 297.13 187.66 297.13 187.66 237.71"/><polyline class="cls-2" points="187.66 297.13 187.66 297.13 125.11 297.13 125.11 356.56 187.66 356.56 187.66 297.13"/><polyline class="cls-4" points="187.66 356.56 187.66 356.56 125.11 356.56 125.11 415.98 187.66 415.98 187.66 356.56"/><polyline class="cls-2" points="187.66 415.98 187.66 415.98 125.11 415.98 125.11 475.41 187.66 475.41 187.66 415.98"/><polyline class="cls-4" points="187.66 475.41 187.66 475.41 125.11 475.41 125.11 534.84 187.66 534.84 187.66 475.41"/><polyline class="cls-2" points="187.66 534.84 187.66 534.84 125.11 534.84 125.11 594.26 187.66 594.26 187.66 534.84"/><polyline class="cls-1" points="187.66 594.26 187.66 594.26 125.11 594.26 125.11 653.69 187.66 653.69 187.66 594.26"/><polyline class="cls-2" points="187.66 653.69 187.66 653.69 125.11 653.69 125.11 713.12 187.66 713.12 187.66 653.69"/><polyline class="cls-4" points="187.66 713.12 187.66 713.12 125.11 713.12 125.11 772.54 187.66 772.54 187.66 713.12"/><polyline class="cls-1" points="187.66 772.54 187.66 772.54 125.11 772.54 125.11 831.97 187.66 831.97 187.66 772.54"/><polyline class="cls-1" points="187.66 831.97 187.66 831.97 125.11 831.97 125.11 891.4 187.66 891.4 187.66 831.97"/><polyline class="cls-5" points="125.11 0 62.55 0 62.55 59.42 125.11 59.42 125.11 0"/><polyline class="cls-1" points="125.11 59.42 125.11 59.42 62.55 59.42 62.55 118.85 125.11 118.85 125.11 59.42"/><polyline class="cls-2" points="125.11 118.85 125.11 118.85 62.55 118.85 62.55 178.28 125.11 178.28 125.11 118.85"/><polyline class="cls-5" points="125.11 178.28 125.11 178.28 62.55 178.28 62.55 237.71 125.11 237.71 125.11 178.28"/><polyline class="cls-4" points="125.11 237.71 125.11 237.71 62.55 237.71 62.55 297.13 125.11 297.13 125.11 237.71"/><polyline class="cls-3" points="125.11 297.13 125.11 297.13 62.55 297.13 62.55 356.56 125.11 356.56 125.11 297.13"/><polyline class="cls-2" points="125.11 356.56 125.11 356.56 62.55 356.56 62.55 415.98 125.11 415.98 125.11 356.56"/><polyline class="cls-4" points="125.11 415.98 125.11 415.98 62.55 415.98 62.55 475.41 125.11 475.41 125.11 415.98"/><polyline class="cls-3" points="125.11 475.41 125.11 475.41 62.55 475.41 62.55 534.84 125.11 534.84 125.11 475.41"/><polyline class="cls-4" points="125.11 534.84 125.11 534.84 62.55 534.84 62.55 594.26 125.11 594.26 125.11 534.84"/><polyline class="cls-3" points="125.11 594.26 125.11 594.26 62.55 594.26 62.55 653.69 125.11 653.69 125.11 594.26"/><polyline class="cls-1" points="125.11 653.69 125.11 653.69 62.55 653.69 62.55 713.12 125.11 713.12 125.11 653.69"/><path class="cls-1" d="M125.11,713.12H62.56v59.43h62.55V713.12m0,0h0"/><polyline class="cls-1" points="125.11 772.54 62.55 772.54 62.55 831.97 125.11 831.97 125.11 772.54"/><polyline class="cls-3" points="125.11 831.97 125.11 831.97 62.55 831.97 62.55 891.4 125.11 891.4 125.11 831.97"/><polyline class="cls-2" points="62.55 0 0 0 0 59.42 62.55 59.42 62.55 0"/><polyline class="cls-4" points="62.55 59.42 62.55 59.42 0 59.42 0 118.85 62.55 118.85 62.55 59.42"/><polyline class="cls-3" points="62.55 118.85 62.55 118.85 0 118.85 0 178.28 62.55 178.28 62.55 118.85"/><polyline class="cls-3" points="62.55 178.28 62.55 178.28 0 178.28 0 237.71 62.55 237.71 62.55 178.28"/><polyline class="cls-4" points="62.55 237.71 62.55 237.71 0 237.71 0 297.13 62.55 297.13 62.55 237.71"/><polyline class="cls-2" points="62.55 297.13 62.55 297.13 0 297.13 0 356.56 62.55 356.56 62.55 297.13"/><polyline class="cls-3" points="62.55 356.56 62.55 356.56 0 356.56 0 415.98 62.55 415.98 62.55 356.56"/><polyline class="cls-3" points="62.55 415.98 62.55 415.98 0 415.98 0 475.41 62.55 475.41 62.55 415.98"/><polyline class="cls-2" points="62.55 475.41 62.55 475.41 0 475.41 0 534.84 62.55 534.84 62.55 475.41"/><polyline class="cls-3" points="62.55 534.84 62.55 534.84 0 534.84 0 594.26 62.55 594.26 62.55 534.84"/><polyline class="cls-1" points="62.55 594.26 62.55 594.26 0 594.26 0 653.69 62.55 653.69 62.55 594.26"/><polyline class="cls-1" points="62.55 653.69 62.55 653.69 0 653.69 0 713.12 62.55 713.12 62.55 653.69"/><polyline class="cls-2" points="62.55 713.12 62.55 713.12 0 713.12 0 772.54 62.55 772.54 62.55 713.12"/><polyline class="cls-2" points="62.55 772.54 62.55 772.54 0 772.54 0 831.97 62.55 831.97 62.55 772.54"/><polyline class="cls-3" points="62.55 831.97 62.55 831.97 0 831.97 0 891.4 62.55 891.4 62.55 831.97"/></g></svg>