<svg xmlns="http://www.w3.org/2000/svg" viewBox="0 0 83.65 58.84"><defs><style>.cls-1{fill:#fff;}</style></defs><g id="Capa_1" data-name="Capa 1"><path class="cls-1" d="M75.2,27.24a.61.61,0,0,0,0-.13L63.86,3.72A6.57,6.57,0,0,0,57.93,0H25.71a6.58,6.58,0,0,0-5.93,3.72L8.48,27.11a.61.61,0,0,0,0,.13H0v4.68H83.65V27.24Z"/><path class="cls-1" d="M39.78,36.59H4.36V50.42s.89,7.9,9.33,8.26,20.3,0,20.3,0,6,.35,6.45-8.82l1.2-.08,1.2.08c.43,9.17,6.46,8.82,6.46,8.82s11.85.36,20.29,0,9.34-8.26,9.34-8.26V36.59H39.78Z"/></g></svg>