<?xml version="1.0" encoding="UTF-8" standalone="no"?>
<svg
   width="39"
   height="39"
   viewBox="0 0 39 39"
   fill="none"
   version="1.1"
   id="svg3"
   sodipodi:docname="Vector.svg"
   inkscape:version="1.3 (0e150ed6c4, 2023-07-21)"
   xmlns:inkscape="http://www.inkscape.org/namespaces/inkscape"
   xmlns:sodipodi="http://sodipodi.sourceforge.net/DTD/sodipodi-0.dtd"
   xmlns="http://www.w3.org/2000/svg"
   xmlns:svg="http://www.w3.org/2000/svg">
  <defs
     id="defs3" />
  <sodipodi:namedview
     id="namedview3"
     pagecolor="#ffffff"
     bordercolor="#000000"
     borderopacity="0.25"
     inkscape:showpageshadow="2"
     inkscape:pageopacity="0.0"
     inkscape:pagecheckerboard="0"
     inkscape:deskcolor="#d1d1d1"
     inkscape:zoom="16"
     inkscape:cx="19.21875"
     inkscape:cy="20.53125"
     inkscape:window-width="2560"
     inkscape:window-height="1001"
     inkscape:window-x="-9"
     inkscape:window-y="-9"
     inkscape:window-maximized="1"
     inkscape:current-layer="svg3" />
  <path
     d="m 9.5299669,19.55928 c 0.00403,-1.977889 0.5944791,-3.910196 1.6966961,-5.552547 1.102219,-1.642342 2.66671,-2.920962 4.495607,-3.674165 1.828896,-0.7532011 3.84006,-0.9471574 5.779196,-0.5573401 1.939137,0.3898171 3.719118,1.3459001 5.114931,2.7473431 1.395711,1.401443 2.344547,3.185306 2.726479,5.126009 0.381934,1.940682 0.179787,3.951062 -0.580826,5.77688 -0.760613,1.825816 -2.045545,3.385155 -3.692389,4.480645 -1.646844,1.095491 -3.581508,1.678147 -5.559468,1.674081 -2.651466,-0.008 -5.19145,-1.067744 -7.062523,-2.946411 C 10.576585,24.75511 9.5272625,22.210856 9.5299669,19.55928 Z m 3.6180981,0 c 0,1.259931 0.373477,2.491506 1.073223,3.53923 0.699756,1.047723 1.694377,1.864437 2.858174,2.347087 1.163798,0.48265 2.444552,0.609385 3.680396,0.36435 1.235845,-0.245034 2.371276,-0.850964 3.262893,-1.741157 0.891515,-0.890195 1.499274,-2.024609 1.74624,-3.260047 0.247066,-1.235438 0.122364,-2.516407 -0.358457,-3.680976 -0.480719,-1.16456 -1.295908,-2.160481 -2.342513,-2.861904 -1.046606,-0.701422 -2.277571,-1.076861 -3.537503,-1.078863 -1.685777,0.01069 -3.299347,0.685802 -4.490463,1.878818 -1.191125,1.193027 -1.863675,2.807673 -1.871663,4.493462 z"
     fill="#0394fd"
     id="path1"
     style="stroke-width:1.01632" />
  <path
     d="m 27.28274,9.2286382 c -0.0026,-0.2962976 0.05302,-0.5902171 0.163942,-0.8649892 0.110915,-0.2747618 0.274869,-0.5249898 0.482493,-0.7363841 0.207626,-0.2114046 0.454859,-0.3798391 0.727578,-0.4956893 0.272728,-0.1158442 0.565591,-0.1768375 0.861888,-0.1794952 0.598389,0 1.172274,0.2377099 1.595398,0.660834 0.423125,0.4231242 0.660831,0.997009 0.660831,1.5953975 0,0.5983883 -0.237706,1.1722631 -0.660831,1.5953871 -0.423124,0.423124 -0.997009,0.660841 -1.595398,0.660841 -0.592178,-0.0026 -1.159335,-0.239099 -1.578067,-0.657832 C 27.521839,10.387963 27.285415,9.8208067 27.28274,9.2286382 Z"
     fill="#0394fd"
     id="path2"
     style="stroke-width:1.01632" />
  <path
     d="m 38.992054,19.546776 c -0.05081,2.957487 0,5.904813 -0.193101,8.852138 -0.143098,2.314769 -1.002599,4.527702 -2.45939,6.332278 -1.45669,1.804577 -3.438615,3.111359 -5.671162,3.739445 -1.229747,0.306115 -2.493133,0.456429 -3.760381,0.44718 -5.311995,0.121959 -10.630698,0.121959 -15.95621,0 C 8.3875354,38.806123 5.9381962,37.82253 4.0088364,36.129749 2.0794868,34.436968 0.7857013,32.136327 0.34144689,29.608334 0.23667963,28.935632 0.17894661,28.256427 0.16867061,27.575696 0.01622295,22.209531 0.0568755,16.85353 0.16867061,11.487364 0.15375002,8.792259 1.1068389,6.1813251 2.8545215,4.1296005 4.6022143,2.077886 7.0283712,0.72173418 9.6915846,0.30788193 10.779951,0.16966896 11.877982,0.12207725 12.974285,0.16559749 c 5.081596,0 10.071722,0 15.112665,0.0609791 2.526773,0.0981518 4.945714,1.05005351 6.86178,2.70027121 1.915965,1.6502278 3.215938,3.9012831 3.687612,6.3856243 0.13141,0.6869909 0.202755,1.3840949 0.213428,2.0834239 l 0.142919,8.114672 z m -19.52349,15.864741 c 2.815203,0 5.640571,0 8.445611,-0.172775 1.95052,-0.06546 3.800221,-0.882673 5.162089,-2.28062 1.361969,-1.397845 2.130611,-3.268178 2.145246,-5.219815 0.07114,-3.943318 0.07114,-7.896799 0.07114,-11.840117 0,-1.737906 0,-3.475812 -0.132121,-5.213718 -0.169624,-1.7865869 -0.969264,-3.4546206 -2.255823,-4.7058212 -1.28666,-1.2512006 -2.97629,-2.0040084 -4.766942,-2.1238122 -1.493989,-0.081306 -2.987979,-0.091469 -4.481968,-0.091469 -4.26854,0 -8.547243,0 -12.80562,0.1117951 C 8.9776611,3.9841347 7.2144084,4.792647 5.9099121,6.1404285 4.6054156,7.48822 3.8548945,9.2769214 3.8070971,11.151979 c -0.071142,4.878332 -0.060979,9.746501 -0.060979,14.624832 -0.019666,1.018352 0.027868,2.036907 0.1422846,3.048958 0.2527078,1.701013 1.0784569,3.264823 2.3406745,4.432879 1.2622174,1.167953 2.8852892,1.870129 4.6007748,1.990258 2.876183,0.101631 5.762529,0.101631 8.638712,0.162611 z"
     fill="#0394fd"
     id="path3"
     sodipodi:nodetypes="ccccccsccccccccccccccccscccscccccccc"
     style="stroke-width:1.01632" />
</svg>
